<svg width="18" height="18" viewBox="0 0 18 18" fill="none" xmlns="http://www.w3.org/2000/svg">
<path d="M14.5065 0H3.49321C1.5768 0 0 1.57682 0 3.49326V14.5067C0 16.4232 1.5768 18 3.49321 18H14.5065C16.4229 18 17.9997 16.4232 17.9997 14.5067V3.51752C18.024 1.57682 16.4472 0 14.5065 0ZM13.5362 8.51483C13.3664 8.97574 13.0995 9.38814 12.7599 9.72776C12.4203 10.0916 12.0079 10.3585 11.4985 10.5768C11.0133 10.7951 10.4311 10.8922 9.82465 10.8922H7.54436V14.7251H5.04575V3.32345H9.84891C10.4796 3.32345 11.0618 3.44474 11.547 3.66307C12.0322 3.8814 12.4688 4.17251 12.7842 4.53639C13.1238 4.90027 13.3664 5.31267 13.5362 5.74933C13.706 6.18598 13.803 6.6469 13.803 7.10782C13.803 7.59299 13.706 8.05391 13.5362 8.51483Z" fill="#5E53E1"/>
<path d="M9.82326 5.74951H7.54297V8.51501H9.82326C10.0173 8.51501 10.2114 8.46649 10.3812 8.39372C10.551 8.32094 10.7208 8.2239 10.8421 8.07835C10.9634 7.95706 11.0847 7.78725 11.1575 7.61744C11.2302 7.44762 11.2788 7.25356 11.2788 7.05949C11.2788 6.67134 11.1575 6.35598 10.8664 6.08913C10.6238 5.87081 10.2599 5.74951 9.82326 5.74951Z" fill="#5E53E1"/>
</svg>
