<svg width="15" height="16" viewBox="0 0 15 16" fill="none" xmlns="http://www.w3.org/2000/svg">
<path d="M4.94284 13.3987C4.53103 14.3369 4.95712 15.432 5.89626 15.8427C6.83439 16.2545 7.92855 15.828 8.33979 14.8887C8.45039 14.6385 8.49536 14.3762 8.49201 14.1188L5.40614 12.7656C5.21496 12.9366 5.05335 13.1474 4.94276 13.3987H4.94284Z" fill="#353355"/>
<path d="M14.4709 8.49591C15.3416 6.30537 14.8985 4.21722 13.5969 2.85156C13.6506 2.76942 13.7048 2.69275 13.7453 2.59856C14.1572 1.661 13.7306 0.567953 12.7925 0.156684C11.8543 -0.255128 10.7602 0.17309 10.3485 1.1101C10.3096 1.19883 10.2882 1.29079 10.2652 1.3823C8.31518 1.34291 6.39023 2.53014 5.38427 4.54989C5.38427 4.54989 3.89416 7.9709 2.25783 8.24317C2.20749 8.24596 1.32963 8.26784 1.06179 8.90743C0.809342 9.51255 1.32908 10.3224 2.23317 10.7118L12.0239 14.9311C12.9269 15.3205 13.9247 15.1643 14.1384 14.545C14.3492 13.9345 13.8865 13.3665 13.8426 13.3162C12.9187 11.8967 14.4707 8.49607 14.4707 8.49607L14.4709 8.49591Z" fill="#353355"/>
</svg>
