<svg width="30" height="26" viewBox="0 0 30 26" fill="none" xmlns="http://www.w3.org/2000/svg">
<path fill-rule="evenodd" clip-rule="evenodd" d="M8.16016 14.8421C8.16016 11.0633 11.2235 8 15.0023 8C18.7811 8 21.8444 11.0633 21.8444 14.8421C21.8444 18.6209 18.7811 21.6842 15.0023 21.6842C11.2235 21.6842 8.16016 18.6209 8.16016 14.8421ZM15.0023 9.68421C12.1536 9.68421 9.84437 11.9935 9.84437 14.8421C9.84437 17.6907 12.1536 20 15.0023 20C17.8509 20 20.1602 17.6907 20.1602 14.8421C20.1602 11.9935 17.8509 9.68421 15.0023 9.68421Z" fill="#D3D0F7"/>
<path fill-rule="evenodd" clip-rule="evenodd" d="M10.1356 1.68421C9.42247 1.68421 8.84437 2.26231 8.84437 2.97544V4H21.1602V2.97544C21.1602 2.26231 20.5821 1.68421 19.8689 1.68421H10.1356ZM22.8444 4V2.97544C22.8444 1.33215 21.5122 0 19.8689 0H10.1356C8.49231 0 7.16016 1.33215 7.16016 2.97544V4H4.20226C1.96987 4 0.160156 5.80971 0.160156 8.04211V21.6421C0.160156 23.8745 1.96987 25.6842 4.20226 25.6842H25.8023C28.0347 25.6842 29.8444 23.8745 29.8444 21.6421V8.0421C29.8444 5.80971 28.0347 4 25.8023 4H22.8444ZM4.20226 5.68421C2.90003 5.68421 1.84437 6.73988 1.84437 8.04211V21.6421C1.84437 22.9443 2.90003 24 4.20226 24H25.8023C27.1045 24 28.1602 22.9443 28.1602 21.6421V8.0421C28.1602 6.73988 27.1045 5.68421 25.8023 5.68421H4.20226Z" fill="#D3D0F7"/>
</svg>
