<svg width="71" height="55" viewBox="0 0 71 55" fill="none" xmlns="http://www.w3.org/2000/svg">
<circle cx="43.5" cy="27.5" r="27.5" transform="rotate(-180 43.5 27.5)" fill="white"/>
<circle cx="43.5" cy="27.5" r="27.5" fill="white"/>
<circle cx="43.5" cy="27.5" r="22.5" fill="#B11D94"/>
<path fill-rule="evenodd" clip-rule="evenodd" d="M41.9634 17C47.5 17 52 21.4756 52 27C52 32.4634 47.5976 36.9025 42.1341 37H41.9634H40.2561L39.9756 36.6952V32.9391L40.3293 32.5488H41.9512C45.0366 32.5488 47.5366 30.061 47.5366 27C47.5366 23.9756 45.0854 21.5 42.0366 21.4513H41.939H40.8049L39.4512 22.8293V29.7317L39.0732 30.0854H35.3902L35 29.7439V22.4391L35.3902 22.0732H38.6951L39.9878 20.7805V17.4634C39.9878 17.4634 40.3659 17 40.378 17H41.9634Z" fill="white"/>
</svg>
