<svg width="23" height="24" viewBox="0 0 23 24" fill="none" xmlns="http://www.w3.org/2000/svg">
<path d="M22.9481 12.5335C22.9699 12.4883 22.9858 12.4404 22.9956 12.3911C22.9985 12.3684 22.9985 12.3457 22.9956 12.3232C22.999 12.2826 22.999 12.2417 22.9956 12.2011C22.9988 12.1763 22.9988 12.1513 22.9956 12.1266C23.0015 12.0884 23.0015 12.0494 22.9956 12.0112L22.9549 11.9501H22.9547C22.9454 11.9233 22.9315 11.8981 22.9141 11.8757L18.8448 6.45008V6.41625V6.41602C18.7999 6.37197 18.7497 6.33314 18.6956 6.30066L18.6075 6.23958V6.23981C18.5512 6.23322 18.4942 6.23322 18.4379 6.23981L18.2617 6.1651H4.62973H4.62995C4.57364 6.15851 4.51664 6.15851 4.46032 6.1651H4.42649L4.33838 6.22618H4.33816C4.28411 6.25865 4.23415 6.29726 4.18897 6.34154L4.15513 6.37537L0.0858924 11.8009C0.0684074 11.8234 0.0545558 11.8486 0.0452454 11.8757L0.00459839 11.9367C-0.0015328 11.9749 -0.0015328 12.0137 0.00459839 12.0519C0.000738073 12.0766 0.000738073 12.1018 0.00459839 12.1266C0.00119226 12.1672 0.00119226 12.2081 0.00459839 12.2485C0.00141932 12.2712 0.00141932 12.2939 0.00459839 12.3164C0.0141355 12.3657 0.0300309 12.4136 0.0520577 12.4588C0.0513765 12.4702 0.0513765 12.4815 0.0520577 12.4929C0.0795344 12.5503 0.116096 12.603 0.160602 12.6489L10.3337 23.5004H10.3675V23.5001C10.4134 23.5446 10.4661 23.5812 10.5235 23.6087H10.5846C10.6443 23.685 10.7181 23.7493 10.8015 23.7985H12.1581C12.2414 23.796 12.3238 23.7799 12.4022 23.7511H12.4632C12.5207 23.7236 12.5734 23.687 12.6193 23.6425H12.6531L22.8262 12.791V12.7912C22.8705 12.7454 22.9073 12.6927 22.9347 12.6352C22.9452 12.6023 22.9497 12.5678 22.9484 12.5335L22.9481 12.5335ZM11.6897 22.4421H11.2691L7.70855 12.9474H15.25L11.6897 22.4421ZM13.1139 7.52136H17.2849L16.1454 10.5528L13.1139 7.52136ZM15.2707 11.5906H7.68858L11.4797 7.79952L15.2707 11.5906ZM6.81369 10.5531L5.67419 7.52136H9.84516L6.81369 10.5531ZM17.2036 11.5906L18.465 8.24028L20.9745 11.5906H17.2036ZM4.49423 8.24028L5.75587 11.5906H1.98502L4.49423 8.24028ZM6.26452 12.9472L8.97743 20.177L2.19517 12.9472H6.26452ZM13.9827 20.177L16.6956 12.9472H20.7649L13.9827 20.177Z" fill="#5E53E1"/>
<path d="M11.3775 3.45291C11.5574 3.45291 11.7299 3.38161 11.8571 3.25444C11.9843 3.12705 12.0558 2.9547 12.0558 2.77485V1.41829C12.0558 1.04383 11.752 0.740234 11.3775 0.740234C11.0031 0.740234 10.6992 1.04384 10.6992 1.41829V2.77485C10.6992 2.9547 10.7708 3.12705 10.8979 3.25444C11.0251 3.38161 11.1977 3.45291 11.3775 3.45291Z" fill="#5E53E1"/>
<path d="M15.9556 4.50411C16.1337 4.5032 16.304 4.43258 16.4305 4.30746L17.3935 3.34445V3.34422C17.6564 3.0799 17.6564 2.65257 17.3935 2.38801C17.2661 2.25971 17.0928 2.1875 16.9118 2.1875C16.7311 2.1875 16.5576 2.25971 16.4304 2.38801L15.4742 3.34422H15.474C15.2785 3.53837 15.2197 3.83153 15.3253 4.08587C15.4311 4.34042 15.6802 4.50574 15.9556 4.50415L15.9556 4.50411Z" fill="#5E53E1"/>
<path d="M6.52742 4.3075C6.79333 4.57137 7.22321 4.57 7.48707 4.3041C7.75116 4.03796 7.74979 3.60832 7.48389 3.34422L6.52744 2.38801C6.40028 2.25971 6.22679 2.1875 6.04604 2.1875C5.86506 2.1875 5.69179 2.25971 5.5644 2.38801C5.30145 2.65256 5.30145 3.0799 5.5644 3.34422L6.52742 4.3075Z" fill="#5E53E1"/>
</svg>
