<svg width="16" height="16" viewBox="0 0 16 16" fill="none" xmlns="http://www.w3.org/2000/svg">
<path d="M12.7334 0H3.06624C1.38407 0 0 1.38407 0 3.06624V12.7334C0 14.4156 1.38407 15.7996 3.06624 15.7996H12.7334C14.4156 15.7996 15.7996 14.4156 15.7996 12.7334V3.08753C15.8209 1.38407 14.4369 0 12.7334 0ZM11.8817 7.47395C11.7326 7.87853 11.4984 8.24051 11.2003 8.53862C10.9022 8.85802 10.5402 9.09225 10.093 9.28389C9.66717 9.47553 9.15613 9.5607 8.62379 9.5607H6.62222V12.925H4.42901V2.91718H8.64509C9.19871 2.91718 9.70975 3.02365 10.1356 3.21529C10.5615 3.40693 10.9448 3.66245 11.2216 3.98185C11.5197 4.30125 11.7326 4.66324 11.8817 5.04652C12.0307 5.4298 12.1159 5.83437 12.1159 6.23894C12.1159 6.66481 12.0307 7.06938 11.8817 7.47395Z" fill="white"/>
<path d="M8.62267 5.04688H6.62109V7.47431H8.62267C8.79301 7.47431 8.96336 7.43173 9.11241 7.36785C9.26147 7.30397 9.41052 7.21879 9.51698 7.09103C9.62345 6.98457 9.72992 6.83551 9.7938 6.68646C9.85768 6.53741 9.90026 6.36706 9.90026 6.19671C9.90026 5.85602 9.7938 5.57921 9.53828 5.34498C9.32535 5.15334 9.00595 5.04688 8.62267 5.04688Z" fill="white"/>
</svg>
